<svg width="22" height="24" viewBox="0 0 22 24" fill="none" xmlns="http://www.w3.org/2000/svg">
    <path d="M15.499 0C14.2195 0.0884995 12.724 0.907495 11.8525 1.97399C11.0575 2.94148 10.4035 4.37847 10.6585 5.77497C12.0565 5.81847 13.501 4.97997 14.338 3.89548C15.121 2.88598 15.7135 1.45799 15.499 0Z" fill="#FFFFFF"/>
    <path d="M20.5556 8.05196C19.3271 6.51146 17.6006 5.61747 15.9701 5.61747C13.8176 5.61747 12.9071 6.64796 11.4116 6.64796C9.86963 6.64796 8.69813 5.62047 6.83665 5.62047C5.00816 5.62047 3.06117 6.73796 1.82668 8.64895C0.0911857 11.3399 0.388184 16.3994 3.20067 20.7089C4.20716 22.2509 5.55115 23.9849 7.30914 23.9999C8.87363 24.0149 9.31463 22.9964 11.4341 22.9859C13.5536 22.9739 13.9556 24.0134 15.5171 23.9969C17.2766 23.9834 18.6941 22.0619 19.7006 20.5199C20.4221 19.4144 20.6906 18.8579 21.2501 17.6099C17.1806 16.0604 16.5281 10.2734 20.5556 8.05196Z" fill="#FFFFFF"/>
</svg>
