<svg xmlns="http://www.w3.org/2000/svg" viewBox="0 0 22 24">
    <path
        d="M15.5,0c-1.3,0.1-2.8,0.9-3.6,2c-0.8,1-1.4,2.4-1.2,3.8c1.4,0,2.8-0.8,3.7-1.9C15.1,2.9,15.7,1.5,15.5,0z"
        fill="#FFFFFF" />
    <path d="M20.6,8.1c-1.2-1.5-3-2.4-4.6-2.4c-2.2,0-3.1,1-4.6,1c-1.5,0-2.7-1-4.6-1c-1.8,0-3.8,1.1-5,3c-1.7,2.7-1.4,7.8,1.4,12.1
	c1,1.5,2.4,3.3,4.1,3.3c1.6,0,2-1,4.1-1c2.1,0,2.5,1,4.1,1c1.8,0,3.2-1.9,4.2-3.5c0.7-1.1,1-1.7,1.5-2.9
	C17.2,16.1,16.5,10.3,20.6,8.1z" fill="#FFFFFF" />
</svg>
