<svg xmlns="http://www.w3.org/2000/svg" viewBox="0 0 26 26">
    <path fill-rule="evenodd" clip-rule="evenodd" d="M9.9,13.5c-0.3-0.2-0.5-0.3-0.8-0.5c-0.3-0.2-0.5-0.3-0.7-0.4c-0.1,0-0.1,0-0.2,0c-0.6,0-1.2,0.1-1.7,0.3
	c-0.5,0.2-1,0.5-1.3,0.9c-0.4,0.3-0.7,0.8-0.9,1.2c-0.3,0.5-0.5,0.9-0.6,1.4c-0.1,0.5-0.3,1-0.4,1.5c-0.1,0.5-0.2,1-0.2,1.5
	c0,0.5,0,0.9,0,1.4c0,1.3,0.4,2.3,1.2,3C4.9,24.6,6,25,7.2,25h11.4c1.2,0,2.3-0.4,3-1.1c0.8-0.7,1.2-1.8,1.2-3c0-0.5,0-1,0-1.4
	c0-0.5-0.1-1-0.2-1.5c-0.1-0.5-0.2-1.1-0.4-1.5c-0.2-0.5-0.4-1-0.6-1.4c-0.3-0.5-0.6-0.9-0.9-1.2c-0.4-0.4-0.8-0.6-1.3-0.9
	c-0.5-0.2-1.1-0.3-1.7-0.3c-0.2,0-0.5,0.1-0.9,0.4c-0.3,0.2-0.6,0.4-1,0.6c-0.3,0.2-0.7,0.4-1.3,0.6c-0.5,0.2-1,0.3-1.5,0.3
	c-0.5,0-1-0.1-1.5-0.3c-0.5-0.2-0.9-0.4-1.3-0.6L9.9,13.5z M10.9,15.6c-0.6-0.2-1.1-0.4-1.6-0.7l0,0c-0.4-0.2-0.7-0.4-1-0.6
	c-0.1-0.1-0.2-0.1-0.2-0.1l0,0c-0.4,0-0.7,0.1-1,0.2c-0.4,0.1-0.6,0.3-0.9,0.5c-0.2,0.2-0.5,0.5-0.7,0.9c-0.2,0.4-0.4,0.8-0.5,1.1
	c-0.1,0.4-0.2,0.8-0.3,1.3c-0.1,0.5-0.1,1-0.2,1.4c0,0.4,0,0.9,0,1.3c0,0.9,0.3,1.5,0.7,1.9c0.4,0.4,1.1,0.7,2,0.7h11.4
	c0.9,0,1.5-0.3,2-0.7c0.4-0.4,0.7-1,0.7-1.9c0-0.5,0-0.9,0-1.3v0c0-0.4-0.1-0.9-0.2-1.4c-0.1-0.5-0.2-0.9-0.3-1.3
	c-0.1-0.4-0.3-0.8-0.5-1.1c-0.2-0.4-0.4-0.7-0.7-0.9c-0.2-0.2-0.5-0.4-0.9-0.5c-0.3-0.1-0.6-0.2-1-0.2l0,0c-0.1,0-0.1,0.1-0.2,0.1
	c-0.3,0.2-0.6,0.4-1,0.6l0,0c-0.5,0.3-1,0.5-1.6,0.7c-0.7,0.2-1.3,0.3-2,0.3C12.2,15.9,11.6,15.8,10.9,15.6z"
        fill="#FFFFFF" />
    <path fill-rule="evenodd" clip-rule="evenodd" d="M16.8,10.9c1.1-1.1,1.7-2.5,1.7-4.1c0-1.6-0.6-3-1.7-4.1c-1.1-1.1-2.5-1.7-4-1.7c-1.6,0-2.9,0.6-4,1.7
	S7,5.2,7,6.8c0,1.6,0.6,3,1.7,4.1C8.9,11,9,11.2,9.2,11.3c0.2,0.2,0.5,0.4,0.7,0.5c0.2,0.1,0.5,0.2,0.7,0.3c0.7,0.3,1.4,0.4,2.1,0.4
	C14.3,12.6,15.7,12,16.8,10.9z M9.8,9.8c0.8,0.8,1.8,1.2,3,1.2c1.2,0,2.1-0.4,3-1.2C16.6,9,17,8,17,6.8c0-1.2-0.4-2.2-1.2-3
	c-0.8-0.8-1.8-1.2-3-1.2c-1.2,0-2.1,0.4-3,1.2c-0.8,0.8-1.2,1.8-1.2,3C8.5,8,8.9,9,9.8,9.8z"
        fill="#FFFFFF" />
</svg>
