<svg xmlns="http://www.w3.org/2000/svg" viewBox="0 0 26 26">
    <path d="M9.9,13.5c-0.3-0.2-0.5-0.3-0.8-0.5s-0.5-0.3-0.7-0.4c-0.1,0-0.1,0-0.2,0c-0.6,0-1.2,0.1-1.7,0.3
	s-1,0.5-1.3,0.9c-0.4,0.3-0.7,0.8-0.9,1.2c-0.3,0.5-0.5,0.9-0.6,1.4s-0.3,1-0.4,1.5c-0.1,0.5-0.2,1-0.2,1.5s0,0.9,0,1.4
	c0,1.3,0.4,2.3,1.2,3C4.9,24.6,6,25,7.2,25h11.4c1.2,0,2.3-0.4,3-1.1c0.8-0.7,1.2-1.8,1.2-3c0-0.5,0-1,0-1.4c0-0.5-0.1-1-0.2-1.5
	s-0.2-1.1-0.4-1.5c-0.2-0.5-0.4-1-0.6-1.4c-0.3-0.5-0.6-0.9-0.9-1.2c-0.4-0.4-0.8-0.6-1.3-0.9c-0.5-0.2-1.1-0.3-1.7-0.3
	c-0.2,0-0.5,0.1-0.9,0.4c-0.3,0.2-0.6,0.4-1,0.6c-0.3,0.2-0.7,0.4-1.3,0.6c-0.5,0.2-1,0.3-1.5,0.3s-1-0.1-1.5-0.3s-0.9-0.4-1.3-0.6
	L9.9,13.5z" fill="#FFFFFF" />
    <path d="M16.8,10.9c1.1-1.1,1.7-2.5,1.7-4.1s-0.6-3-1.7-4.1S14.3,1,12.8,1c-1.6,0-2.9,0.6-4,1.7S7,5.2,7,6.8
	s0.6,3,1.7,4.1C8.9,11,9,11.2,9.2,11.3c0.2,0.2,0.5,0.4,0.7,0.5s0.5,0.2,0.7,0.3c0.7,0.3,1.4,0.4,2.1,0.4
	C14.3,12.6,15.7,12,16.8,10.9z" fill="#FFFFFF" />
</svg>
