<svg xmlns="http://www.w3.org/2000/svg" viewBox="0 0 23 27">
	<path d="M8.2,8.4l5.3,6.4c0.9,1.1,1.5,2.6,1.5,4.1c0,3.6-3,6.6-6.8,6.6s-6.8-2.9-6.8-6.6c0-1.5,0.5-3,1.5-4.1L8.2,8.4M8.3,6l-6.4,7.9C0.6,15.3,0,17.1,0,18.9C0,23.4,3.7,27,8.3,27c4.5,0,8.3-3.6,8.3-8.1c0-1.8-0.6-3.7-1.8-5.1L8.3,6L8.3,6z" fill="#FFFFFF"/>
	<path d="M19.3,2.4L21,4.6c0.3,0.4,0.5,0.8,0.5,1.3c0,1.2-1,2.2-2.3,2.2S17,7.1,17,5.9c0-0.5,0.2-0.9,0.5-1.3L19.3,2.4M19.3,0l-2.9,3.6c-0.5,0.7-0.8,1.4-0.8,2.3c0,2,1.7,3.7,3.8,3.7S23,7.9,23,5.9c0-0.8-0.3-1.6-0.8-2.3L19.3,0L19.3,0z" fill="#FFFFFF"/>
</svg>
