<svg xmlns="http://www.w3.org/2000/svg" viewBox="0 0 26 26">
    <path fill-rule="evenodd" clip-rule="evenodd"
        d="M8.5,16.4h14.7c0.5,0,0.9,0.4,0.9,0.9c0,0.5-0.4,0.9-0.9,0.9H7.8c-0.4,0-0.8-0.3-0.9-0.7L4.4,2.7H1.9C1.4,2.7,1,2.3,1,1.9S1.4,1,1.9,1h3.3C5.6,1,5.9,1.3,6,1.7l0.7,4h16.4c0.1,0,0.2,0,0.3,0.1c0.4,0.2,0.7,0.7,0.5,1.1L21,14.2c-0.1,0.3-0.4,0.6-0.8,0.6h-12L8.5,16.4z M22,7.2H7l1,6.1h11.7L22,7.2z"
        fill="#FFFFFF" />
    <path fill-rule="evenodd" clip-rule="evenodd"
        d="M10.1,25c1.6,0,2.9-1.3,2.9-2.9c0-1.6-1.3-2.9-2.9-2.9c-1.6,0-2.9,1.3-2.9,2.9C7.3,23.7,8.6,25,10.1,25zM10.1,23.5c0.7,0,1.4-0.6,1.4-1.4s-0.6-1.4-1.4-1.4c-0.7,0-1.4,0.6-1.4,1.4S9.4,23.5,10.1,23.5z"
        fill="#FFFFFF" />
    <path fill-rule="evenodd" clip-rule="evenodd"
        d="M21.2,22.1c0,1.6-1.3,2.9-2.9,2.9c-1.6,0-2.9-1.3-2.9-2.9c0-1.6,1.3-2.9,2.9-2.9C19.9,19.3,21.2,20.6,21.2,22.1z M19.7,22.1c0,0.7-0.6,1.4-1.4,1.4S17,22.9,17,22.1s0.6-1.4,1.4-1.4S19.7,21.4,19.7,22.1z"
        fill="#FFFFFF" />
</svg>
