<svg xmlns="http://www.w3.org/2000/svg" viewBox="0 0 24 24">
    <path d="M6.9,8.1c1.2-1.5,3-2.5,5.1-2.5c1.7,0,3.3,0.7,4.5,1.9L17,8l4-4l-0.5-0.5C18.2,1.2,15.2,0,12,0C8.8,0,5.8,1.2,3.5,3.5
	C3.3,3.7,3.1,3.9,2.9,4.2L6.9,8.1z" fill="#FFFFFF" />
    <path d="M19.8,21.1c0.2-0.2,0.4-0.4,0.6-0.6c2.3-2.3,3.5-5.3,3.5-8.5c0-0.7-0.1-1.5-0.2-2.2l-0.1-0.6H11.3v5.6h6.4
	c-0.4,0.9-1.1,1.6-1.8,2.2L19.8,21.1z" fill="#FFFFFF" />
    <path d="M14.6,17.8c-0.8,0.4-1.7,0.6-2.6,0.6c-2.1,0-3.9-1-5.1-2.5l-4,4c0.2,0.2,0.4,0.4,0.6,0.6C5.8,22.8,8.8,24,12,24
	c2.4,0,4.8-0.7,6.7-2.1L14.6,17.8z" fill="#FFFFFF" />
    <path
        d="M6.2,14.6c-0.4-0.8-0.6-1.7-0.6-2.6s0.2-1.8,0.6-2.6L2.1,5.3C0.7,7.2,0,9.6,0,12c0,2.4,0.7,4.8,2.1,6.7L6.2,14.6z"
        fill="#FFFFFF" />
</svg>
