<svg width="24" height="24" viewBox="0 0 24 24" fill="none" xmlns="http://www.w3.org/2000/svg">
    <path d="M6.92254 8.14978C8.08785 6.61678 9.93013 5.625 11.9999 5.625C13.7027 5.625 15.3036 6.28809 16.5078 7.49217L17.0049 7.98933L20.9824 4.01189L20.4853 3.51473C18.2188 1.24823 15.2053 0 11.9999 0C8.79463 0 5.78118 1.24823 3.51463 3.51469C3.3089 3.72047 3.11179 3.93253 2.92297 4.15017L6.92254 8.14978Z" fill="#FFFFFF"/>
    <path d="M19.8498 21.0769C20.0674 20.8881 20.2795 20.691 20.4853 20.4853C22.7518 18.2187 24 15.2053 24 11.9999C24 11.2699 23.9339 10.5384 23.8035 9.82603L23.698 9.24951H11.2969V14.8745H17.6931C17.2507 15.7545 16.6179 16.5048 15.8556 17.0827L19.8498 21.0769Z" fill="#FFFFFF"/>
    <path d="M14.6063 17.8221C13.8051 18.1795 12.9213 18.3749 11.9999 18.3749C9.93013 18.3749 8.08785 17.3831 6.92254 15.8501L2.92297 19.8497C3.11179 20.0673 3.3089 20.2794 3.51463 20.4851C5.78118 22.7516 8.79463 23.9999 11.9999 23.9999C14.4335 23.9999 16.7561 23.2797 18.7255 21.9414L14.6063 17.8221Z" fill="#FFFFFF"/>
    <path d="M6.18108 14.603C5.82394 13.8078 5.625 12.9267 5.625 12C5.625 11.0733 5.82394 10.1922 6.18108 9.39698L2.05852 5.27441C0.720141 7.24387 0 9.56643 0 12C0 14.4336 0.720141 16.7561 2.05852 18.7256L6.18108 14.603Z" fill="#FFFFFF"/>
</svg>
