<svg width="282" height="331" viewBox="0 0 282 331" fill="none" xmlns="http://www.w3.org/2000/svg">
    <path d="M0 230.368C0 285.857 46.3852 331 103.4 331C160.415 331 206.8 285.857 206.8 230.368C206.8 207.586 198.759 184.651 184.154 166.908L103.4 68.7506L22.6465 166.908C8.04139 184.651 0 207.586 0 230.368ZM56.4 230.368C56.4 255.589 77.4855 276.11 103.4 276.11V294.407C67.1216 294.407 37.6 265.675 37.6 230.368H56.4Z" fill="white"/>
    <path d="M235 119.539C260.915 119.539 282 99.0176 282 73.7968C282 63.2817 278.447 53.4094 271.728 45.2527L235 0L198.272 45.2527C191.553 53.4094 188 63.2817 188 73.7968C188 99.0176 209.085 119.539 235 119.539Z" fill="white"/>
</svg>
