<svg xmlns="http://www.w3.org/2000/svg" viewBox="0 0 175 43">
    <defs>
        <linearGradient id="lg1" gradientUnits="userSpaceOnUse" x1="19.5942" y1="2.3436"
            x2="19.5942" y2="24.5126" gradientTransform="matrix(1 0 0 -1 0 44)">
            <stop offset="0" style="stop-color:#BA2F24" />
            <stop offset="1" style="stop-color:#FF2D16" />
        </linearGradient>
        <linearGradient id="lg2" gradientUnits="userSpaceOnUse" x1="108.1817" y1="2.3436"
            x2="108.1817" y2="24.5126" gradientTransform="matrix(1 0 0 -1 0 44)">
            <stop offset="0" style="stop-color:#BA2F24" />
            <stop offset="1" style="stop-color:#FF2D16" />
        </linearGradient>
        <linearGradient id="lg3" gradientUnits="userSpaceOnUse" x1="62.2454" y1="2.3436"
            x2="62.2454" y2="24.5126" gradientTransform="matrix(1 0 0 -1 0 44)">
            <stop offset="0" style="stop-color:#BA2F24" />
            <stop offset="1" style="stop-color:#FF2D16" />
        </linearGradient>
        <linearGradient id="lg4" gradientUnits="userSpaceOnUse" x1="154.5567" y1="2.3436"
            x2="154.5567" y2="24.5126" gradientTransform="matrix(1 0 0 -1 0 44)">
            <stop offset="0" style="stop-color:#BA2F24" />
            <stop offset="1" style="stop-color:#FF2D16" />
        </linearGradient>
        <linearGradient id="lg5" gradientUnits="userSpaceOnUse" x1="127.1285" y1="2.3436"
            x2="127.1285" y2="24.5126" gradientTransform="matrix(1 0 0 -1 0 44)">
            <stop offset="0" style="stop-color:#BA2F24" />
            <stop offset="1" style="stop-color:#FF2D16" />
        </linearGradient>
    </defs>
    <path class="st0" d="M30.9,43v-1.8c-2.7,1.1-5.6,1.7-8.6,1.7C10,42.9,0,33.3,0,21.4S10,0,22.3,0c5.3,0,10.5,1.8,14.5,5.2l0.4,0.4
	c0,0-1.6,3-2.3,4.3l-0.4,0.8L33.9,10C31,7.2,27.1,5.7,23.1,5.7c-8.6,0-15.6,7.1-15.6,15.8s7,15.8,15.6,15.8c1.5,0,2.9-0.2,4.3-0.6
	c1.2-0.4,2.4-0.9,3.5-1.5l0-9.4h-6.6L22.7,21h16.5v22H30.9z" fill="#FF2D16" />
    <path class="st1" d="M30.9,43v-1.8c-2.7,1.1-5.6,1.7-8.6,1.7C10,42.9,0,33.3,0,21.4S10,0,22.3,0c5.3,0,10.5,1.8,14.5,5.2l0.4,0.4
	c0,0-1.6,3-2.3,4.3l-0.4,0.8L33.9,10C31,7.2,27.1,5.7,23.1,5.7c-8.6,0-15.6,7.1-15.6,15.8s7,15.8,15.6,15.8c1.5,0,2.9-0.2,4.3-0.6
	c1.2-0.4,2.4-0.9,3.5-1.5l0-9.4h-6.6L22.7,21h16.5v22H30.9z" fill="url(#lg1)" />
    <path class="st0" d="M114,43c-3.2,0-6.2-0.7-9.1-1.3c-2.9-0.7-5.9-1.3-9-1.3c-0.6,0-1.1,0-1.6,0.1c-0.5,0-1,0.1-1.5,0.1
	c-2.4,0.3-4.5,0.7-6.5,1.3l-0.9,0.3V0h8v35.4c0.2,0,0.5,0,0.8-0.1c0.6,0,1.1-0.1,1.7-0.1c3.4,0,6.4,0.7,9.4,1.5
	c2.9,0.7,5.7,1.4,8.8,1.4c3.2,0,6.4-0.8,9.6-2.5c0.4-0.2,1.4-0.6,2.9-0.6c1,0,2.1,0.2,3.2,0.6l1.3,0.5l-1.2,0.8
	C124.4,41,119.3,43,114,43z" fill="#FF2D16" />
    <path class="st2" d="M114,43c-3.2,0-6.2-0.7-9.1-1.3c-2.9-0.7-5.9-1.3-9-1.3c-0.6,0-1.1,0-1.6,0.1c-0.5,0-1,0.1-1.5,0.1
	c-2.4,0.3-4.5,0.7-6.5,1.3l-0.9,0.3V0h8v35.4c0.2,0,0.5,0,0.8-0.1c0.6,0,1.1-0.1,1.7-0.1c3.4,0,6.4,0.7,9.4,1.5
	c2.9,0.7,5.7,1.4,8.8,1.4c3.2,0,6.4-0.8,9.6-2.5c0.4-0.2,1.4-0.6,2.9-0.6c1,0,2.1,0.2,3.2,0.6l1.3,0.5l-1.2,0.8
	C124.4,41,119.3,43,114,43z" fill="url(#lg2)" />
    <path class="st0" d="M62.7,42.9c-3.8,0-7.5-1.3-11.2-4c-4.7-3.5-7.1-8.3-7.1-14.3c0-4.4,0-12.5,0-19.3V0h8.4l0,26.2
	c0,6.4,4.2,10.9,10.1,10.9c7.4,0,12.4-4.5,12.5-11.1c0-4.5,0-16.3,0-25.3V0h4.7l0,24.7c0.1,7.6-3.1,13-9.5,16.2
	C68,42.3,65.3,42.9,62.7,42.9z" fill="#FF2D16" />
    <path class="st3" d="M62.7,42.9c-3.8,0-7.5-1.3-11.2-4c-4.7-3.5-7.1-8.3-7.1-14.3c0-4.4,0-12.5,0-19.3V0h8.4l0,26.2
	c0,6.4,4.2,10.9,10.1,10.9c7.4,0,12.4-4.5,12.5-11.1c0-4.5,0-16.3,0-25.3V0h4.7l0,24.7c0.1,7.6-3.1,13-9.5,16.2
	C68,42.3,65.3,42.9,62.7,42.9z" fill="url(#lg3)" />
    <path class="st0" d="M166.4,43l-1.1-2.6c-1-2.4-2.1-5.3-3-7.4h-19.1l-4,10h-5.1l16.2-40.7l0.9-2.3h6.5L175,43H166.4z M160.4,28
	l-7.6-19.1L145.1,28H160.4z" fill="#FF2D16" />
    <path class="st4" d="M166.4,43l-1.1-2.6c-1-2.4-2.1-5.3-3-7.4h-19.1l-4,10h-5.1l16.2-40.7l0.9-2.3h6.5L175,43H166.4z M160.4,28
	l-7.6-19.1L145.1,28H160.4z" fill="url(#lg4)" />
    <path class="st0" d="M140.9,0l-0.7,1.7c-0.4,0.9-0.7,1.8-1.1,2.7l-0.2,0.4h-17.7v10.1h13.3l-0.4,0.9c-0.5,1.2-0.9,2.3-1.4,3.5
	l-0.2,0.4l-0.5,0h-11v15.5l-0.4,0.2c-2.2,0.9-4.4,1.3-6.7,1.4l-0.7,0V0H140.9z" fill="#FF2D16" />
    <path class="st5" d="M140.9,0l-0.7,1.7c-0.4,0.9-0.7,1.8-1.1,2.7l-0.2,0.4h-17.7v10.1h13.3l-0.4,0.9c-0.5,1.2-0.9,2.3-1.4,3.5
	l-0.2,0.4l-0.5,0h-11v15.5l-0.4,0.2c-2.2,0.9-4.4,1.3-6.7,1.4l-0.7,0V0H140.9z" fill="url(#lg5)" />
    <path class="st6" d="M30.9,43v-1.8c-2.7,1.1-5.6,1.7-8.6,1.7C10,42.9,0,33.3,0,21.4S10,0,22.3,0c5.3,0,10.5,1.8,14.5,5.2l0.4,0.4
	c0,0-1.6,3-2.3,4.3l-0.4,0.8L33.9,10C31,7.2,27.1,5.7,23.1,5.7c-8.6,0-15.6,7.1-15.6,15.8s7,15.8,15.6,15.8c1.5,0,2.9-0.2,4.3-0.6
	c1.2-0.4,2.4-0.9,3.5-1.5l0-9.4h-6.6L22.7,21h16.5v22H30.9z" fill="none" stroke="#899190"
        stroke-width="0.5" />
    <path class="st6" d="M114,43c-3.2,0-6.2-0.7-9.1-1.3c-2.9-0.7-5.9-1.3-9-1.3c-0.6,0-1.1,0-1.6,0.1c-0.5,0-1,0.1-1.5,0.1
	c-2.4,0.3-4.5,0.7-6.5,1.3l-0.9,0.3V0h8v35.4c0.2,0,0.5,0,0.8-0.1c0.6,0,1.1-0.1,1.7-0.1c3.4,0,6.4,0.7,9.4,1.5
	c2.9,0.7,5.7,1.4,8.8,1.4c3.2,0,6.4-0.8,9.6-2.5c0.4-0.2,1.4-0.6,2.9-0.6c1,0,2.1,0.2,3.2,0.6l1.3,0.5l-1.2,0.8
	C124.4,41,119.3,43,114,43z" fill="none" stroke="#899190" stroke-width="0.5" />
    <path class="st6" d="M62.7,42.9c-3.8,0-7.5-1.3-11.2-4c-4.7-3.5-7.1-8.3-7.1-14.3c0-4.4,0-12.5,0-19.3V0h8.4l0,26.2
	c0,6.4,4.2,10.9,10.1,10.9c7.4,0,12.4-4.5,12.5-11.1c0-4.5,0-16.3,0-25.3V0h4.7l0,24.7c0.1,7.6-3.1,13-9.5,16.2
	C68,42.3,65.3,42.9,62.7,42.9z" fill="none" stroke="#899190" stroke-width="0.5" />
    <path class="st6" d="M166.4,43l-1.1-2.6c-1-2.4-2.1-5.3-3-7.4h-19.1l-4,10h-5.1l16.2-40.7l0.9-2.3h6.5L175,43H166.4z M160.4,28
	l-7.6-19.1L145.1,28H160.4z" fill="none" stroke="#899190" stroke-width="0.5" />
    <path class="st6" d="M140.9,0l-0.7,1.7c-0.4,0.9-0.7,1.8-1.1,2.7l-0.2,0.4h-17.7v10.1h13.3l-0.4,0.9c-0.5,1.2-0.9,2.3-1.4,3.5
	l-0.2,0.4l-0.5,0h-11v15.5l-0.4,0.2c-2.2,0.9-4.4,1.3-6.7,1.4l-0.7,0V0H140.9z" fill="none"
        stroke="#899190" stroke-width="0.5" />
</svg>
