<svg width="175" height="43" viewBox="0 0 175 43" fill="none" xmlns="http://www.w3.org/2000/svg">
    <defs>
        <linearGradient id="paint0_linear" x1="86.8414" y1="40.7228" x2="86.8414" y2="19.5828" gradientUnits="userSpaceOnUse">
            <stop stop-color="#BA2F24"/>
            <stop offset="1" stop-color="#FF2D16"/>
        </linearGradient>
        <linearGradient id="paint1_linear" x1="86.8414" y1="40.7228" x2="86.8414" y2="19.5828" gradientUnits="userSpaceOnUse">
            <stop stop-color="#BA2F24"/>
            <stop offset="1" stop-color="#FF2D16"/>
        </linearGradient>
        <linearGradient id="paint2_linear" x1="86.8414" y1="40.7228" x2="86.8414" y2="19.5828" gradientUnits="userSpaceOnUse">
            <stop stop-color="#BA2F24"/>
            <stop offset="1" stop-color="#FF2D16"/>
        </linearGradient>
        <linearGradient id="paint3_linear" x1="86.8414" y1="40.7228" x2="86.8414" y2="19.5828" gradientUnits="userSpaceOnUse">
            <stop stop-color="#BA2F24"/>
            <stop offset="1" stop-color="#FF2D16"/>
        </linearGradient>
        <linearGradient id="paint4_linear" x1="86.8414" y1="40.7228" x2="86.8414" y2="19.5828" gradientUnits="userSpaceOnUse">
            <stop stop-color="#BA2F24"/>
            <stop offset="1" stop-color="#FF2D16"/>
        </linearGradient>
    </defs>
    <path d="M31.5413 42.004V40.3107C28.8458 41.371 25.9826 41.9062 23.0092 41.9062C10.8745 41.9011 1 32.7296 1 21.4531C1 10.1766 10.8745 1.00515 23.0092 1.00515C28.269 1.00515 33.3609 2.76533 37.3464 5.9563L37.7817 6.30113C37.7817 6.30113 36.1822 9.17816 35.511 10.3825L35.0915 11.1339L34.4569 10.542C31.5937 7.87603 27.8285 6.40921 23.864 6.40921C15.3687 6.40921 8.46226 13.1566 8.46226 21.448C8.46226 29.7394 15.3687 36.4919 23.864 36.4919C25.3009 36.4919 26.7272 36.3014 28.0959 35.9206C29.3125 35.5758 30.4715 35.092 31.5465 34.4846L31.5622 25.4779H25.0334L23.4078 20.9796H39.7324V42.004H31.5413Z" fill="#FF2D16"/>
    <path d="M31.5413 42.004V40.3107C28.8458 41.371 25.9826 41.9062 23.0092 41.9062C10.8745 41.9011 1 32.7296 1 21.4531C1 10.1766 10.8745 1.00515 23.0092 1.00515C28.269 1.00515 33.3609 2.76533 37.3464 5.9563L37.7817 6.30113C37.7817 6.30113 36.1822 9.17816 35.511 10.3825L35.0915 11.1339L34.4569 10.542C31.5937 7.87603 27.8285 6.40921 23.864 6.40921C15.3687 6.40921 8.46226 13.1566 8.46226 21.448C8.46226 29.7394 15.3687 36.4919 23.864 36.4919C25.3009 36.4919 26.7272 36.3014 28.0959 35.9206C29.3125 35.5758 30.4715 35.092 31.5465 34.4846L31.5622 25.4779H25.0334L23.4078 20.9796H39.7324V42.004H31.5413Z" fill="url(#paint0_linear)"/>
    <path d="M113.642 42.004C110.474 42.004 107.506 41.3504 104.638 40.7225C101.79 40.0946 98.8484 39.4512 95.7177 39.4512C95.1723 39.4512 94.627 39.4718 94.0921 39.5079C93.5834 39.549 93.101 39.5953 92.629 39.6417C90.2482 39.8887 88.1978 40.2953 86.1788 40.9284L85.3031 41.2011V1.00515H93.2373V34.7574C93.4838 34.7368 93.7355 34.7162 93.9924 34.6957C94.5431 34.6545 95.1094 34.6339 95.6705 34.6339C99.0005 34.6339 102.026 35.3441 104.952 36.0338C107.863 36.7183 110.611 37.3617 113.626 37.3617C116.835 37.3617 119.945 36.5845 123.128 34.9839C123.501 34.8037 124.518 34.3869 126.034 34.3869C127.061 34.3869 128.142 34.5773 129.232 34.9427L130.543 35.3853L129.379 36.1213C123.931 40.1409 118.938 42.004 113.642 42.004Z" fill="#FF2D16"/>
    <path d="M113.642 42.004C110.474 42.004 107.506 41.3504 104.638 40.7225C101.79 40.0946 98.8484 39.4512 95.7177 39.4512C95.1723 39.4512 94.627 39.4718 94.0921 39.5079C93.5834 39.549 93.101 39.5953 92.629 39.6417C90.2482 39.8887 88.1978 40.2953 86.1788 40.9284L85.3031 41.2011V1.00515H93.2373V34.7574C93.4838 34.7368 93.7355 34.7162 93.9924 34.6957C94.5431 34.6545 95.1094 34.6339 95.6705 34.6339C99.0005 34.6339 102.026 35.3441 104.952 36.0338C107.863 36.7183 110.611 37.3617 113.626 37.3617C116.835 37.3617 119.945 36.5845 123.128 34.9839C123.501 34.8037 124.518 34.3869 126.034 34.3869C127.061 34.3869 128.142 34.5773 129.232 34.9427L130.543 35.3853L129.379 36.1213C123.931 40.1409 118.938 42.004 113.642 42.004Z" fill="url(#paint1_linear)"/>
    <path d="M62.9374 41.9371C59.1984 41.9371 55.4803 40.6504 51.8882 38.1131C47.2105 34.814 44.8507 30.2232 44.8717 24.4743C44.8874 20.2333 44.8822 12.5287 44.8769 6.05409V1.00515H53.1572L53.173 26.0234C53.2044 32.1326 57.321 36.4198 63.1838 36.4404C70.5307 36.4404 75.4549 32.1738 75.5021 25.8227C75.5335 21.4891 75.5283 10.295 75.5178 1.66393V1H80.143L80.1693 24.5463C80.2532 31.7466 77.1067 36.9551 70.8191 40.0225C68.2181 41.2938 65.5699 41.9371 62.9374 41.9371Z" fill="#FF2D16"/>
    <path d="M62.9374 41.9371C59.1984 41.9371 55.4803 40.6504 51.8882 38.1131C47.2105 34.814 44.8507 30.2232 44.8717 24.4743C44.8874 20.2333 44.8822 12.5287 44.8769 6.05409V1.00515H53.1572L53.173 26.0234C53.2044 32.1326 57.321 36.4198 63.1838 36.4404C70.5307 36.4404 75.4549 32.1738 75.5021 25.8227C75.5335 21.4891 75.5283 10.295 75.5178 1.66393V1H80.143L80.1693 24.5463C80.2532 31.7466 77.1067 36.9551 70.8191 40.0225C68.2181 41.2938 65.5699 41.9371 62.9374 41.9371Z" fill="url(#paint2_linear)"/>
    <path d="M165.416 42.004L164.378 39.5079C163.418 37.2021 162.27 34.4538 161.446 32.4568H142.521L138.546 42.004H133.553L149.605 3.22853L150.518 1.00515H156.952L173.964 42.004H165.416ZM159.517 27.691L151.981 9.47667L144.44 27.691H159.517Z" fill="#FF2D16"/>
    <path d="M165.416 42.004L164.378 39.5079C163.418 37.2021 162.27 34.4538 161.446 32.4568H142.521L138.546 42.004H133.553L149.605 3.22853L150.518 1.00515H156.952L173.964 42.004H165.416ZM159.517 27.691L151.981 9.47667L144.44 27.691H159.517Z" fill="url(#paint3_linear)"/>
    <path d="M140.213 1.00515L139.558 2.60063C139.212 3.4447 138.855 4.31449 138.504 5.14827L138.331 5.55486H120.879V15.1895H134.031L133.658 16.0954C133.207 17.1968 132.751 18.293 132.295 19.3944L132.122 19.8062L131.666 19.8216H120.81V34.5876L120.386 34.7523C118.199 35.6015 116.028 36.0235 113.762 36.0441L113.086 36.0493V1.00515H140.213Z" fill="#FF2D16"/>
    <path d="M140.213 1.00515L139.558 2.60063C139.212 3.4447 138.855 4.31449 138.504 5.14827L138.331 5.55486H120.879V15.1895H134.031L133.658 16.0954C133.207 17.1968 132.751 18.293 132.295 19.3944L132.122 19.8062L131.666 19.8216H120.81V34.5876L120.386 34.7523C118.199 35.6015 116.028 36.0235 113.762 36.0441L113.086 36.0493V1.00515H140.213Z" fill="url(#paint4_linear)"/>
    <path d="M31.5413 42.004V40.3107C28.8458 41.371 25.9826 41.9062 23.0092 41.9062C10.8745 41.9011 1 32.7296 1 21.4531C1 10.1766 10.8745 1.00515 23.0092 1.00515C28.269 1.00515 33.3609 2.76533 37.3464 5.9563L37.7817 6.30113C37.7817 6.30113 36.1822 9.17816 35.511 10.3825L35.0915 11.1339L34.4569 10.542C31.5937 7.87603 27.8285 6.40921 23.864 6.40921C15.3687 6.40921 8.46226 13.1566 8.46226 21.448C8.46226 29.7394 15.3687 36.4919 23.864 36.4919C25.3009 36.4919 26.7272 36.3014 28.0959 35.9206C29.3125 35.5758 30.4715 35.092 31.5465 34.4846L31.5622 25.4779H25.0334L23.4078 20.9796H39.7324V42.004H31.5413Z" stroke="#899190" stroke-width="0.5"/>
    <path d="M113.642 42.004C110.474 42.004 107.506 41.3504 104.638 40.7225C101.79 40.0946 98.8484 39.4512 95.7177 39.4512C95.1723 39.4512 94.627 39.4718 94.0921 39.5079C93.5834 39.549 93.101 39.5953 92.629 39.6417C90.2482 39.8887 88.1978 40.2953 86.1788 40.9284L85.3031 41.2011V1.00515H93.2373V34.7574C93.4838 34.7368 93.7355 34.7162 93.9924 34.6957C94.5431 34.6545 95.1094 34.6339 95.6705 34.6339C99.0005 34.6339 102.026 35.3441 104.952 36.0338C107.863 36.7183 110.611 37.3617 113.626 37.3617C116.835 37.3617 119.945 36.5845 123.128 34.9839C123.501 34.8037 124.518 34.3869 126.034 34.3869C127.061 34.3869 128.142 34.5773 129.232 34.9427L130.543 35.3853L129.379 36.1213C123.931 40.1409 118.938 42.004 113.642 42.004Z" stroke="#899190" stroke-width="0.5"/>
    <path d="M62.9374 41.9371C59.1984 41.9371 55.4803 40.6504 51.8882 38.1131C47.2105 34.814 44.8507 30.2232 44.8717 24.4743C44.8874 20.2333 44.8822 12.5287 44.8769 6.05409V1.00515H53.1572L53.173 26.0234C53.2044 32.1326 57.321 36.4198 63.1838 36.4404C70.5307 36.4404 75.4549 32.1738 75.5021 25.8227C75.5335 21.4891 75.5283 10.295 75.5178 1.66393V1H80.143L80.1693 24.5463C80.2532 31.7466 77.1067 36.9551 70.8191 40.0225C68.2181 41.2938 65.5699 41.9371 62.9374 41.9371Z" stroke="#899190" stroke-width="0.5"/>
    <path d="M165.416 42.004L164.378 39.5079C163.418 37.2021 162.27 34.4538 161.446 32.4568H142.521L138.546 42.004H133.553L149.605 3.22853L150.518 1.00515H156.952L173.964 42.004H165.416ZM159.517 27.691L151.981 9.47667L144.44 27.691H159.517Z" stroke="#899190" stroke-width="0.5"/>
    <path d="M140.213 1.00515L139.558 2.60063C139.212 3.4447 138.855 4.31449 138.504 5.14827L138.331 5.55486H120.879V15.1895H134.031L133.658 16.0954C133.207 17.1968 132.751 18.293 132.295 19.3944L132.122 19.8062L131.666 19.8216H120.81V34.5876L120.386 34.7523C118.199 35.6015 116.028 36.0235 113.762 36.0441L113.086 36.0493V1.00515H140.213Z" stroke="#899190" stroke-width="0.5"/>
</svg>
