<svg xmlns="http://www.w3.org/2000/svg" viewBox="0 0 25 31">
    <path d="M24.5,24.7c-0.1-0.1-0.8-0.5-1.5-2c-1.3-2.7-1.6-6.4-1.6-9.1c0,0,0,0,0,0c0-3.5-2.2-6.6-5.3-8V3.5c0-1.9-1.6-3.5-3.5-3.5
	h-0.3c-1.9,0-3.5,1.5-3.5,3.5v2.1c-3.1,1.4-5.3,4.5-5.3,8c0,2.7-0.3,6.4-1.6,9.1c-0.7,1.5-1.4,1.9-1.5,2c-0.4,0.2-0.6,0.6-0.5,1
	c0.1,0.4,0.5,0.7,0.9,0.7h6.8c0,2.6,2.2,4.6,4.8,4.6s4.7-2.1,4.8-4.6H24c0.4,0,0.8-0.3,0.9-0.7C25.1,25.3,24.9,24.8,24.5,24.7z
	 M10.7,3.5c0-0.9,0.7-1.6,1.7-1.6h0.3c0.9,0,1.7,0.7,1.7,1.6V5c-0.6-0.1-1.2-0.2-1.8-0.2c-0.6,0-1.2,0.1-1.8,0.2L10.7,3.5z
	 M12.5,29.2c-1.6,0-2.9-1.2-2.9-2.8h5.8C15.4,27.9,14.1,29.2,12.5,29.2z M16.2,24.6c0,0-13.2,0-13.2,0c0.2-0.2,0.3-0.5,0.5-0.8
	c1.2-2.4,1.9-5.8,1.9-10.2c0-3.8,3.2-7,7.1-7c3.9,0,7.1,3.1,7.1,7c0,0,0,0,0,0c0,4.3,0.6,7.7,1.9,10.1c0.2,0.3,0.3,0.6,0.5,0.8H16.2
	z" fill="#FFFFFF" />
</svg>
