<svg xmlns="http://www.w3.org/2000/svg" viewBox="0 0 33 33">
    <path d="M27.6,5.4C24.8,2.6,21,1,17,1c0,0,0,0,0,0c-2,0-3.9,0.4-5.8,1.1C9.4,2.9,7.7,4,6.3,5.4C3.5,8.2,1.9,12,1.9,16
	c0,2.4,0.6,4.8,1.7,6.9l-2.5,7.2c-0.2,0.5-0.1,1.1,0.3,1.4C1.7,31.9,2,32,2.4,32c0.2,0,0.3,0,0.5-0.1l7.2-2.5
	c2.1,1.1,4.5,1.7,6.9,1.7c4,0,7.8-1.6,10.6-4.4C30.4,23.8,32,20,32,16C32,12,30.4,8.2,27.6,5.4z M26.3,25.4
	c-2.5,2.5-5.8,3.9-9.3,3.9c-2.2,0-4.3-0.5-6.2-1.5c-0.3-0.2-0.8-0.2-1.1-0.1l-6.6,2.3l2.3-6.6c0.1-0.4,0.1-0.8-0.1-1.1
	c-1-1.9-1.5-4-1.5-6.2c0-3.5,1.4-6.8,3.9-9.3c2.5-2.5,5.8-3.9,9.3-3.9h0c3.5,0,6.8,1.4,9.3,3.9c2.5,2.5,3.9,5.8,3.9,9.3
	C30.2,19.6,28.8,22.9,26.3,25.4z" />
    <path d="M22.6,17.4c-0.7-0.7-1.8-0.7-2.5,0l-0.8,0.8c-1.9-1-3.4-2.5-4.4-4.4l0.8-0.8c0.7-0.7,0.7-1.8,0-2.5l-2-2
	c-0.7-0.7-1.8-0.7-2.5,0L9.4,10c-0.9,0.9-1,2.5-0.1,4.5c0.7,1.7,2.1,3.6,3.8,5.3c1.7,1.7,3.6,3.1,5.3,3.8c0.9,0.4,1.8,0.6,2.5,0.6
	c0.8,0,1.5-0.2,2-0.7l1.6-1.6v0c0.3-0.3,0.5-0.8,0.5-1.3c0-0.5-0.2-0.9-0.5-1.3L22.6,17.4z M21.7,22.3c-0.3,0.3-1.1,0.4-2.5-0.3
	c-1.5-0.6-3.2-1.9-4.8-3.4c-1.6-1.6-2.8-3.2-3.4-4.8c-0.6-1.4-0.5-2.3-0.3-2.5l1.6-1.6l2,2l-0.9,0.9c-0.4,0.4-0.5,1.1-0.3,1.6
	c1.2,2.4,3.2,4.4,5.6,5.6c0.5,0.3,1.2,0.2,1.6-0.3l0.9-0.9l2,2L21.7,22.3z" />
    <path d="M27.6,5.4C24.8,2.6,21,1,17,1c0,0,0,0,0,0c-2,0-3.9,0.4-5.8,1.1C9.4,2.9,7.7,4,6.3,5.4C3.5,8.2,1.9,12,1.9,16
	c0,2.4,0.6,4.8,1.7,6.9l-2.5,7.2c-0.2,0.5-0.1,1.1,0.3,1.4C1.7,31.9,2,32,2.4,32c0.2,0,0.3,0,0.5-0.1l7.2-2.5
	c2.1,1.1,4.5,1.7,6.9,1.7c4,0,7.8-1.6,10.6-4.4C30.4,23.8,32,20,32,16C32,12,30.4,8.2,27.6,5.4z M26.3,25.4
	c-2.5,2.5-5.8,3.9-9.3,3.9c-2.2,0-4.3-0.5-6.2-1.5c-0.3-0.2-0.8-0.2-1.1-0.1l-6.6,2.3l2.3-6.6c0.1-0.4,0.1-0.8-0.1-1.1
	c-1-1.9-1.5-4-1.5-6.2c0-3.5,1.4-6.8,3.9-9.3c2.5-2.5,5.8-3.9,9.3-3.9h0c3.5,0,6.8,1.4,9.3,3.9c2.5,2.5,3.9,5.8,3.9,9.3
	C30.2,19.6,28.8,22.9,26.3,25.4z" fill="#FFFFFF" stroke="#FFFFFF" stroke-width="0.2" />
    <path d="M22.6,17.4c-0.7-0.7-1.8-0.7-2.5,0l-0.8,0.8c-1.9-1-3.4-2.5-4.4-4.4l0.8-0.8c0.7-0.7,0.7-1.8,0-2.5l-2-2
	c-0.7-0.7-1.8-0.7-2.5,0L9.4,10c-0.9,0.9-1,2.5-0.1,4.5c0.7,1.7,2.1,3.6,3.8,5.3c1.7,1.7,3.6,3.1,5.3,3.8c0.9,0.4,1.8,0.6,2.5,0.6
	c0.8,0,1.5-0.2,2-0.7l1.6-1.6v0c0.3-0.3,0.5-0.8,0.5-1.3c0-0.5-0.2-0.9-0.5-1.3L22.6,17.4z M21.7,22.3c-0.3,0.3-1.1,0.4-2.5-0.3
	c-1.5-0.6-3.2-1.9-4.8-3.4c-1.6-1.6-2.8-3.2-3.4-4.8c-0.6-1.4-0.5-2.3-0.3-2.5l1.6-1.6l2,2l-0.9,0.9c-0.4,0.4-0.5,1.1-0.3,1.6
	c1.2,2.4,3.2,4.4,5.6,5.6c0.5,0.3,1.2,0.2,1.6-0.3l0.9-0.9l2,2L21.7,22.3z" fill="#FFFFFF"
        stroke="#FFFFFF" stroke-width="0.2" />
</svg>
